<svg width="21" height="35" viewBox="0 0 21 35" fill="none" xmlns="http://www.w3.org/2000/svg">
<rect y="9.45428" width="5.20833" height="25.5457" fill="#FAFF00"/>
<rect x="7.8125" y="9.45428" width="5.20833" height="25.5457" fill="#FFCB45"/>
<rect x="15.625" y="9.45428" width="5.20833" height="25.5457" fill="white"/>
<path d="M5.20833 3.15148C5.20833 3.15148 4.74863 0.262665 4.16667 0.262665C3.51891 -0.217985 0.33904 3.32666 0.35032 3.93598C0.12755 4.32302 0 4.7727 0 5.25243C0 6.70284 1.16592 7.87863 2.60417 7.87863C4.04241 7.87863 4.81322 6.64703 5.20833 5.25243C5.43184 4.46353 5.20833 3.15148 5.20833 3.15148Z" fill="#FAFF00"/>
<path d="M13.0208 3.45873C13.0208 3.45873 12.5611 0.569916 11.9792 0.569916C11.3314 0.0892656 8.15154 3.63391 8.16282 4.24323C7.94005 4.63027 7.8125 5.07995 7.8125 5.55968C7.8125 7.01009 8.97842 8.18588 10.4167 8.18588C11.8549 8.18588 12.6257 6.95428 13.0208 5.55968C13.2443 4.77078 13.0208 3.45873 13.0208 3.45873Z" fill="#FFCB45"/>
<path d="M20.8333 3.45873C20.8333 3.45873 20.3736 0.569916 19.7917 0.569916C19.1439 0.0892656 15.964 3.63391 15.9753 4.24323C15.7526 4.63027 15.625 5.07995 15.625 5.55968C15.625 7.01009 16.7909 8.18588 18.2292 8.18588C19.6674 8.18588 20.4382 6.95428 20.8333 5.55968C21.0568 4.77078 20.8333 3.45873 20.8333 3.45873Z" fill="white"/>
</svg>
